<?xml version="1.0" standalone="no"?><!DOCTYPE svg PUBLIC "-//W3C//DTD SVG 1.1//EN" "http://www.w3.org/Graphics/SVG/1.1/DTD/svg11.dtd"><svg t="1591814799711" class="icon" viewBox="0 0 1024 1024" version="1.1" xmlns="http://www.w3.org/2000/svg" p-id="2355" xmlns:xlink="http://www.w3.org/1999/xlink" width="200" height="200"><defs><style type="text/css"></style></defs><path d="M955.076923 746.338462L834.953846 649.846154c-27.569231-21.661538-66.953846-23.630769-94.523077-1.969231l-102.4 74.830769c-11.815385 9.846154-29.538462 7.876923-41.353846-3.938461l-153.6-137.846154-137.846154-153.6c-11.815385-11.815385-11.815385-27.569231-3.938461-41.353846l74.830769-102.4c21.661538-27.569231 19.692308-66.953846-1.969231-94.523077l-96.492308-120.123077c-29.538462-35.446154-82.707692-39.384615-116.184615-5.907692L59.076923 165.415385c-15.753846 15.753846-23.630769 37.415385-23.630769 59.076923 9.846154 200.861538 100.430769 391.876923 234.338461 525.784615S594.707692 974.769231 795.569231 984.615385c21.661538 1.969231 43.323077-7.876923 59.076923-23.63077l102.4-102.4c37.415385-29.538462 35.446154-84.676923-1.969231-112.246153z" p-id="2356"></path></svg>