<?xml version="1.0" standalone="no"?><!DOCTYPE svg PUBLIC "-//W3C//DTD SVG 1.1//EN" "http://www.w3.org/Graphics/SVG/1.1/DTD/svg11.dtd"><svg t="1591815784381" class="icon" viewBox="0 0 1024 1024" version="1.1" xmlns="http://www.w3.org/2000/svg" p-id="19483" xmlns:xlink="http://www.w3.org/1999/xlink" width="200" height="200"><defs><style type="text/css"></style></defs><path d="M740.727863 447.928063a256.063944 256.063944 0 1 0 0 512.095916 256.063944 256.063944 0 0 0 0-512.095916z m102.566255 98.825528l22.668165 22.604221-99.848632 99.848632-22.668166-22.636193 99.848633-99.81666z m-205.228425 0l99.912576 99.81666-22.604221 22.636193-99.944549-99.848632 22.636194-22.604221z m230.646184 157.238416h-96.043961v63.976021h96.043961v32.035969h-96.043961v96.011989h-63.976021v-96.011989h-96.043962v-32.035969h96.043962v-63.976021h-96.043962v-32.035969h256.063944v32.035969z m-448.023979 0c0-58.348945 15.890096-112.92519 43.162233-160.019983H180.67391a15.986012 15.986012 0 0 1-15.986012-16.017984v-31.972024a15.986012 15.986012 0 0 1 15.986012-16.017985H512.31972a319.080804 319.080804 0 0 1 228.408143-95.980017c33.410766 0 65.670538 5.179468 95.980018 14.675159V63.912077a64.007993 64.007993 0 0 0-64.039965-64.007993H260.667916L36.63994 223.932059v736.059948c0 35.329087 28.646934 64.007993 64.007993 64.007993h640.07993c-176.837267 0.031972-320.039965-143.266642-320.039965-320.007993zM164.687898 303.926065c0-8.824279 7.097789-15.986012 15.986012-15.986013h512.063944a15.986012 15.986012 0 0 1 15.986013 15.986013v31.972024a15.986012 15.986012 0 0 1-15.986013 16.017984H180.67391a15.986012 15.986012 0 0 1-15.986012-16.017984v-31.972024z m159.988011 416.083926a15.986012 15.986012 0 0 1-15.986013 15.986012H180.67391a15.986012 15.986012 0 0 1-15.986012-15.986012v-32.035968a15.986012 15.986012 0 0 1 15.986012-16.017985h128.015986c8.824279 0 15.986012 7.193706 15.986013 16.017985v32.035968z m0 0" p-id="19484"></path></svg>