<?xml version="1.0" standalone="no"?><!DOCTYPE svg PUBLIC "-//W3C//DTD SVG 1.1//EN" "http://www.w3.org/Graphics/SVG/1.1/DTD/svg11.dtd"><svg t="1591816194385" class="icon" viewBox="0 0 1024 1024" version="1.1" xmlns="http://www.w3.org/2000/svg" p-id="20668" xmlns:xlink="http://www.w3.org/1999/xlink" width="200" height="200"><defs><style type="text/css"></style></defs><path d="M467.362909 451.956364H442.181818a23.272727 23.272727 0 0 0 0 46.545454h46.545455v23.272727h-46.545455a23.272727 23.272727 0 0 0 0 46.545455h46.545455v46.545455a23.272727 23.272727 0 1 0 46.545454 0v-46.545455h46.545455a23.272727 23.272727 0 1 0 0-46.545455h-46.545455v-23.272727h46.545455a23.272727 23.272727 0 1 0 0-46.545454h-25.181091l41.006545-41.029819a22.574545 22.574545 0 1 0-31.953454-31.953454L512 432.686545l-53.690182-53.713454a22.574545 22.574545 0 0 0-31.953454 31.953454l41.006545 41.006546zM884.363636 581.818182a69.818182 69.818182 0 0 1 0-139.636364v-162.909091a46.545455 46.545455 0 0 0-46.545454-46.545454H186.181818a46.545455 46.545455 0 0 0-46.545454 46.545454v162.909091a69.818182 69.818182 0 0 1 0 139.636364v162.909091a46.545455 46.545455 0 0 0 46.545454 46.545454h651.636364a46.545455 46.545455 0 0 0 46.545454-46.545454v-162.909091zM232.727273 0h558.545454c128.535273 0 232.727273 104.192 232.727273 232.727273v558.545454c0 128.535273-104.192 232.727273-232.727273 232.727273H232.727273C104.192 1024 0 919.808 0 791.272727V232.727273C0 104.192 104.192 0 232.727273 0z m139.636363 279.272727h279.272728a46.545455 46.545455 0 0 1 46.545454 46.545455v395.636363l-19.083636 23.831273a23.272727 23.272727 0 0 1-36.305455 0L623.709091 721.454545l-19.083636 23.831273a23.272727 23.272727 0 0 1-36.305455 0L549.236364 721.454545l-19.083637 23.831273a23.272727 23.272727 0 0 1-36.305454 0L474.763636 721.454545l-19.083636 23.831273a23.272727 23.272727 0 0 1-36.305455 0L400.290909 721.454545l-19.083636 23.831273a23.272727 23.272727 0 0 1-36.305455 0L325.818182 721.454545V325.818182a46.545455 46.545455 0 0 1 46.545454-46.545455z" p-id="20669"></path></svg>