<?xml version="1.0" standalone="no"?><!DOCTYPE svg PUBLIC "-//W3C//DTD SVG 1.1//EN" "http://www.w3.org/Graphics/SVG/1.1/DTD/svg11.dtd"><svg t="1591816615920" class="icon" viewBox="0 0 1024 1024" version="1.1" xmlns="http://www.w3.org/2000/svg" p-id="25806" xmlns:xlink="http://www.w3.org/1999/xlink" width="200" height="200"><defs><style type="text/css"></style></defs><path d="M283.951407 151.096889a245.57037 245.57037 0 0 0-18.659555 93.677037 245.342815 245.342815 0 0 0 151.096889 226.190222c29.658074 12.250074 61.667556 18.583704 93.714963 18.583704 32.047407 0 64.094815-6.33363 93.677037-18.583704a245.191111 245.191111 0 0 0 151.096889-226.190222A244.963556 244.963556 0 0 0 603.780741 18.62163 245.911704 245.911704 0 0 0 510.103704 0c-32.047407 0-64.056889 6.371556-93.677037 18.583704a245.077333 245.077333 0 0 0-132.47526 132.475259zM721.275259 587.320889H298.894222C186.633481 587.320889 94.814815 679.177481 94.814815 791.438222c0 112.260741 91.856593 204.117333 204.079407 204.117334h422.381037c112.260741 0 204.079407-91.856593 204.079408-204.117334 0-112.260741-91.780741-204.117333-204.041482-204.117333z" p-id="25807"></path></svg>